<svg width="35" height="35" viewBox="0 0 35 35" fill="none" xmlns="http://www.w3.org/2000/svg">
<path d="M2.91669 24.7917C2.91669 25.5938 3.57294 26.25 4.37502 26.25H30.625C31.4271 26.25 32.0834 25.5938 32.0834 24.7917C32.0834 23.9896 31.4271 23.3333 30.625 23.3333H4.37502C3.57294 23.3333 2.91669 23.9896 2.91669 24.7917ZM2.91669 17.5C2.91669 18.3021 3.57294 18.9583 4.37502 18.9583H30.625C31.4271 18.9583 32.0834 18.3021 32.0834 17.5C32.0834 16.6979 31.4271 16.0417 30.625 16.0417H4.37502C3.57294 16.0417 2.91669 16.6979 2.91669 17.5ZM2.91669 10.2083C2.91669 11.0104 3.57294 11.6667 4.37502 11.6667H30.625C31.4271 11.6667 32.0834 11.0104 32.0834 10.2083C32.0834 9.40625 31.4271 8.75 30.625 8.75H4.37502C3.57294 8.75 2.91669 9.40625 2.91669 10.2083Z" fill="#323232"/>
</svg>
